<svg width="800" height="800" viewBox="0 0 120 120" id="Layer_1" version="1.1" xml:space="preserve" xmlns="http://www.w3.org/2000/svg"><style>.st0{fill:#448ffc}.st1{fill:#f99653}.st8{fill:#80b2f9}</style><path class="st0" d="M78.3 34.1h-2.7V43h2.7c1.5 0 2.8-1 2.8-2.3v-4.4c0-1.2-1.2-2.2-2.8-2.2m-39.5 2.2v4.4c0 1.2 1.2 2.3 2.8 2.3h2.7v-8.9h-2.7c-1.6 0-2.8 1-2.8 2.2"/><path class="st1" d="M95.6 102.7H24.3V74c0-4.6 3.3-8.7 8.2-10.2L53 57.6c4.6-1.4 9.4-1.4 13.8 0l20.5 6.2c4.9 1.5 8.2 5.6 8.2 10.2z"/><path style="fill:#ffd551" d="M64.7 78h11.9v2.6H64.7z"/><path style="fill:#edbf9a" d="M52.4 45.1h15.1v21H52.4z"/><path d="M77.1 34.7c0 11.6-7.7 23.4-17.1 23.4S42.8 46.2 42.8 34.7 50.5 16.1 60 16.1s17.1 7 17.1 18.6" style="fill:#ffd9b6"/><path d="M40.7 81.9h-.5c-.5 0-1 .4-1 1v19.7h2.6V83c-.1-.6-.6-1.1-1.1-1.1m39.1 0h-.5c-.5 0-1 .4-1 1v19.7h2.6V83c-.1-.6-.5-1.1-1.1-1.1M67.5 59.1 60 65.9l-7.6-6.8-1.1-1-8 2.4 11.9 10.8 4.8-5.2 4.7 5.2 12-10.8-8.1-2.4z" style="fill:#e08344"/><path class="st0" d="M66.8 50.3c-1.2 0-1.5 0-3-.1h-1.5V49h1.5c6.9.2 9.2.3 11.3-1.5 2.2-1.8 1.8-6.4 1.8-6.5l1.2-.1c0 .2.5 5.3-2.2 7.5-2 1.7-4.6 1.9-9.1 1.9"/><path class="st1" d="M65.1 51.7H61c-.6 0-1.1-.5-1.1-1.1v-1.5c0-.6.5-1.1 1.1-1.1h4.1c.6 0 1.1.5 1.1 1.1v1.5c.1.5-.4 1.1-1.1 1.1"/><path d="M77.1 23.7c0-5.3-2.7-5.5-2.7-5.5l-4.2-.5c-.8-.1-1.4-.7-1.5-1.5-.5-2.7-2.5-2.4-2.5-2.4s-13.9 0-18.3 1.7c-5.1 2-6.3 5.5-6.3 8.4 0 5.9 1.5 16.5 2.4 18.9.2.5 1.1.4 1.1-.2v-7.9c0-.5.4-.9.9-.9h19.4c.5 0 .9-.4.9-.9V31c0-.5.4-.9.9-.9s.8.4.8.9v1.9c0 .5.4.9.9.9h5c.5 0 .9.4.9.9v7.6c0 .6 1.1.6 1.3.1.7-2.5 1.1-5 1.1-7.6 0-1.1-.1-8-.1-11.1" style="fill:#3f3f3f"/><path d="M32.5 69.3h54.9c1.9 0 3.4 1.6 3.2 3.5l-2 31H31.4l-2-31c-.2-1.9 1.2-3.5 3.1-3.5" style="fill:#efeeed"/><path class="st8" d="M63.6 96c0-1.6-1-2.9-2.4-3.4v2.8c0 .6-.4 1.2-1.1 1.2-.7.1-1.4-.5-1.4-1.2v-2.8c-1.5.5-2.5 2-2.4 3.7.1 1.4 1.1 2.6 2.4 3.1v3.7h2.4v-3.7c1.5-.4 2.5-1.8 2.5-3.4"/><path class="st8" d="M70.5 98.9h2.4v-5.4h-2.4c-.3-1-.6-2-1.2-2.8L71 89l-3.8-3.9-1.7 1.7c-.9-.5-1.8-.9-2.8-1.2v-2.4h-5.4v2.4c-1 .3-1.9.6-2.8 1.2l-1.7-1.7-3.8 3.8 1.7 1.7c-.5.9-.9 1.8-1.2 2.8h-2.4v5.4h2.4c.2.9.6 1.7 1 2.5 0 .1.1.2.2.3l-1.7 1.7 2.9 2.9h1.8l.8-.8c.5.3 1.1.6 1.6.8h7.8c.6-.2 1.1-.5 1.6-.8l.8.8h1.8l3-2.9-1.7-1.7c.1-.1.1-.2.2-.4.4-.7.7-1.5.9-2.3m-9.3 3.1c-.4.1-.8.1-1.2.1s-.8 0-1.2-.1c-.6-.1-1.2-.4-1.8-.7-1.8-1-3-3-3-5.2 0-3.3 2.7-6 6-6s6 2.7 6 6c0 2.2-1.2 4.1-3 5.2-.5.3-1.2.6-1.8.7"/><path class="st0" d="M101.3 103.8c0 .7-.3 1.3-.7 1.8s-1.1.7-1.8.7H21.2c-1.4 0-2.5-1.1-2.5-2.5 0-.7.3-1.3.7-1.8s1.1-.7 1.8-.7h77.6c1.4 0 2.5 1.1 2.5 2.5"/></svg>