<svg width="800" height="800" viewBox="0 0 32 32" xmlns="http://www.w3.org/2000/svg">
  <defs>
    <linearGradient id="chevronGradient" x1="0%" y1="0%" x2="100%" y2="100%">
      <stop offset="0%" style="stop-color:#ff7f50;stop-opacity:1"/>
      <stop offset="100%" style="stop-color:#ff6347;stop-opacity:1"/>
    </linearGradient>
  </defs>
  <path d="m26.695 26.725-5.732-7.951a7.56 7.56 0 0 0 3.145-2.371l.013-.017a7.4 7.4 0 0 0 1.575-4.576v-.077.004l.001-.096a7.43 7.43 0 0 0-2.301-5.383l-.003-.003a8.22 8.22 0 0 0-6.034-2.262l.017-.001H8.321a.8.8 0 0 0-.8.8v22.4c0 .442.358.8.8.801h.928a.8.8 0 0 0 .8-.801v-7.744h7.327q.47-.001.91-.043l5.961 8.256a.8.8 0 0 0 .648.332h1.153a.8.8 0 0 0 .646-1.272l.002.002zM10.048 6.521h7.263a5.8 5.8 0 0 1 4.293 1.52l-.004-.004a4.93 4.93 0 0 1 1.537 3.581l-.002.125v-.006l.001.119c0 1.409-.589 2.68-1.535 3.58l-.002.002a5.8 5.8 0 0 1-4.306 1.514l.017.001h-7.263z"/>
  <path d="M 10 15 L 7 18 L 10 21" stroke="url(#chevronGradient)" stroke-width="1.8" fill="none"/>
</svg>
